<svg id="Layer_1" data-name="Layer 1" xmlns="http://www.w3.org/2000/svg" viewBox="0 0 512 512"><title>computer</title><path d="M256,512,32,384V128L256,0,480,128V384ZM39.88,379.43,256,502.9,472.12,379.43V132.57L256,9.1,39.88,132.57Z" fill="#231f20"/><path d="M352,168H160V288h0v20h83.75c-.8,8.56-4.3,28-19.75,28v8h64v-8c-15.45,0-19-19.44-19.75-28H352V288h0Zm-184,8H344V280H168ZM270.27,336H241.75c6.71-7.62,9.46-19.2,10.09-28h8.34C260.81,316.8,263.55,328.38,270.27,336ZM344,300H168V288H344Z" fill="#231f20"/></svg>