<svg id="Layer_1" data-name="Layer 1" 
xmlns="http://www.w3.org/2000/svg" 
viewBox="0 0 512 512"><title>servers</title>
<path d="M256,512,32,384V128L256,0,480,128V384ZM39.88,379.43,256,502.9,472.12,379.43V132.57L256,9.1,39.88,132.57Z" 
fill="#231f20"/><path 
d="M320,164H192a12,12,0,0,0-12,12v32a12,12,0,0,0,12,12H320a12,12,0,0,0,12-12V176A12,12,0,0,0,320,164Zm4,44a4,4,0,0,1-4,4H192a4,4,0,0,1-4-4V176a4,4,0,0,1,4-4H320a4,4,0,0,1,4,4Zm-4,20H192a12,12,0,0,0-12,12v32a12,12,0,0,0,12,12H320a12,12,0,0,0,12-12V240A12,12,0,0,0,320,228Zm4,44a4,4,0,0,1-4,4H192a4,4,0,0,1-4-4V240a4,4,0,0,1,4-4H320a4,4,0,0,1,4,4Zm-4,20H192a12,12,0,0,0-12,12v32a12,12,0,0,0,12,12H320a12,12,0,0,0,12-12V304A12,12,0,0,0,320,292Zm4,44a4,4,0,0,1-4,4H192a4,4,0,0,1-4-4V304a4,4,0,0,1,4-4H320a4,4,0,0,1,4,4ZM204,188h8v8h-8Zm0,64h8v8h-8Zm0,64h8v8h-8Zm16-128h8v8h-8Zm0,64h8v8h-8Zm0,64h8v8h-8Zm16-128h8v8h-8Zm0,64h8v8h-8Zm0,64h8v8h-8Z"
 fill="#231f20"/>
</svg>