<?xml version="1.0" encoding="UTF-8" standalone="no"?>
<svg
   xmlns:dc="http://purl.org/dc/elements/1.1/"
   xmlns:cc="http://creativecommons.org/ns#"
   xmlns:rdf="http://www.w3.org/1999/02/22-rdf-syntax-ns#"
   xmlns:svg="http://www.w3.org/2000/svg"
   xmlns="http://www.w3.org/2000/svg"
   xmlns:sodipodi="http://sodipodi.sourceforge.net/DTD/sodipodi-0.dtd"
   xmlns:inkscape="http://www.inkscape.org/namespaces/inkscape"
   version="1.1"
   id="svg1428"
   xml:space="preserve"
   width="746.66803"
   height="384"
   viewBox="0 0 746.66803 384"
   sodipodi:docname="nawal.svg"
   inkscape:version="1.0.1 (c497b03c, 2020-09-10)"><metadata
     id="metadata1434"><rdf:RDF><cc:Work
         rdf:about=""><dc:format>image/svg+xml</dc:format><dc:type
           rdf:resource="http://purl.org/dc/dcmitype/StillImage" /><dc:title></dc:title></cc:Work></rdf:RDF></metadata><defs
     id="defs1432"><clipPath
       clipPathUnits="userSpaceOnUse"
       id="clipPath1454"><path
         d="M 0,288 H 560.001 V 0 H 0 Z"
         id="path1452" /></clipPath></defs><sodipodi:namedview
     pagecolor="#ffffff"
     bordercolor="#666666"
     borderopacity="1"
     objecttolerance="10"
     gridtolerance="10"
     guidetolerance="10"
     inkscape:pageopacity="0"
     inkscape:pageshadow="2"
     inkscape:window-width="1268"
     inkscape:window-height="562"
     id="namedview1430"
     showgrid="false"
     inkscape:zoom="1.2928872"
     inkscape:cx="303.44217"
     inkscape:cy="223.67515"
     inkscape:window-x="0"
     inkscape:window-y="23"
     inkscape:window-maximized="0"
     inkscape:current-layer="g1436" /><g
     id="g1436"
     inkscape:groupmode="layer"
     inkscape:label="nawal"
     transform="matrix(1.3333333,0,0,-1.3333333,0,384)"><g
       id="g1444"
       transform="translate(368.7109,139.2793)"
       style="fill:#1a1a1a"><path
         d="M 0,0 3.734,-19.48 H 27.372 L 30.799,0 Z"
         style="fill:#1a1a1a;fill-opacity:1;fill-rule:nonzero;stroke:none"
         id="path1446" /></g><g
       id="g1448"
       style="fill:#1a1a1a"><g
         id="g1450"
         clip-path="url(#clipPath1454)"
         style="fill:#1a1a1a"><g
           id="g1456"
           transform="translate(209.6519,194.4302)"
           style="fill:#1a1a1a"><path
             d="m 0,0 h -16.68 c -10.83,-24.88 -21.65,-49.75 -32.48,-74.63 h 19.08 l 14.03,31.11 3.16,-31.11 h 0.09 l 16.26,29.9 C 2.3,-29.83 1.16,-14.91 0,0"
             style="fill:#1a1a1a;fill-opacity:1;fill-rule:nonzero;stroke:none"
             id="path1458" /></g><g
           id="g1460"
           transform="translate(363.6826,139.4131)"
           style="fill:#1a1a1a"><path
             d="m 0,0 -0.029,-0.133 h -0.002 z m -32.411,10.987 6.7,12.27 2.41,-12.27 z m -91.99,0 6.72,12.27 0.02,-0.08 2.37,-12.19 z M 0.028,-0.133 0.009,0.039 V 0.038 l -10.34,53.979 -0.19,1 h -18.98 l -24.41,-44.87 c -1.15,14.95 -2.31,29.91 -3.46,44.87 h -16.69 c -6.56,-15.14 -13.11,-30.29 -19.67,-45.43 -0.02,-0.05 -0.04,-0.09 -0.06,-0.14 l -8.72,45.57 h -4.66 -0.08 -14.16 -0.08 l -14.67,-26.95 -9.67,-17.78 -16.26,-29.9 h 16.4 0.06 4.68 l 6.31,11.64 h 22.78 l 1.44,-6.66 1.08,-4.98 h 0.07 21.81 l 14.04,31.11 3.15,-31.11 h 21.291 l 5.29,9.74 1.039,1.9 h 22.78 l 2.52,-11.64 h 21.11 l -3.73,19.48 z"
             style="fill:#1a1a1a;fill-opacity:1;fill-rule:nonzero;stroke:none"
             id="path1462" /></g></g></g></g></svg>
