<?xml version="1.0" encoding="UTF-8" standalone="no"?>
<svg
   xmlns:dc="http://purl.org/dc/elements/1.1/"
   xmlns:cc="http://creativecommons.org/ns#"
   xmlns:rdf="http://www.w3.org/1999/02/22-rdf-syntax-ns#"
   xmlns:svg="http://www.w3.org/2000/svg"
   xmlns="http://www.w3.org/2000/svg"
   xmlns:sodipodi="http://sodipodi.sourceforge.net/DTD/sodipodi-0.dtd"
   xmlns:inkscape="http://www.inkscape.org/namespaces/inkscape"
   width="210mm"
   height="297mm"
   viewBox="0 0 210 297"
   version="1.1"
   id="svg8"
   sodipodi:docname="back-end.svg"
   inkscape:version="1.0.1 (c497b03c, 2020-09-10)">
  <defs
     id="defs2" />
  <sodipodi:namedview
     id="base"
     pagecolor="#ffffff"
     bordercolor="#666666"
     borderopacity="1.0"
     inkscape:pageopacity="0.0"
     inkscape:pageshadow="2"
     inkscape:zoom="0.35"
     inkscape:cx="274.28571"
     inkscape:cy="571.42857"
     inkscape:document-units="mm"
     inkscape:current-layer="g848"
     inkscape:document-rotation="0"
     showgrid="false"
     inkscape:window-width="1252"
     inkscape:window-height="855"
     inkscape:window-x="0"
     inkscape:window-y="23"
     inkscape:window-maximized="0" />
  <metadata
     id="metadata5">
    <rdf:RDF>
      <cc:Work
         rdf:about="">
        <dc:format>image/svg+xml</dc:format>
        <dc:type
           rdf:resource="http://purl.org/dc/dcmitype/StillImage" />
        <dc:title></dc:title>
      </cc:Work>
    </rdf:RDF>
  </metadata>
  <g
     inkscape:label="Layer 1"
     inkscape:groupmode="layer"
     id="layer1">
    <g
       id="g848"
       transform="matrix(0.26458333,0,0,0.26458333,32.052382,81.189285)"
       style="fill:#f2f2f2">
      <path
         d="M 256,512 32,384 V 128 L 256,0 480,128 V 384 Z M 39.88,379.43 256,502.9 472.12,379.43 V 132.57 L 256,9.1 39.88,132.57 Z"
         fill="#231f20"
         id="path835"
         style="fill:#f2f2f2;fill-opacity:1" />
      <path
         d="M 320,164 H 192 a 12,12 0 0 0 -12,12 v 32 a 12,12 0 0 0 12,12 h 128 a 12,12 0 0 0 12,-12 v -32 a 12,12 0 0 0 -12,-12 z m 4,44 a 4,4 0 0 1 -4,4 H 192 a 4,4 0 0 1 -4,-4 v -32 a 4,4 0 0 1 4,-4 h 128 a 4,4 0 0 1 4,4 z m -4,20 H 192 a 12,12 0 0 0 -12,12 v 32 a 12,12 0 0 0 12,12 h 128 a 12,12 0 0 0 12,-12 v -32 a 12,12 0 0 0 -12,-12 z m 4,44 a 4,4 0 0 1 -4,4 H 192 a 4,4 0 0 1 -4,-4 v -32 a 4,4 0 0 1 4,-4 h 128 a 4,4 0 0 1 4,4 z m -4,20 H 192 a 12,12 0 0 0 -12,12 v 32 a 12,12 0 0 0 12,12 h 128 a 12,12 0 0 0 12,-12 v -32 a 12,12 0 0 0 -12,-12 z m 4,44 a 4,4 0 0 1 -4,4 H 192 a 4,4 0 0 1 -4,-4 v -32 a 4,4 0 0 1 4,-4 h 128 a 4,4 0 0 1 4,4 z M 204,188 h 8 v 8 h -8 z m 0,64 h 8 v 8 h -8 z m 0,64 h 8 v 8 h -8 z m 16,-128 h 8 v 8 h -8 z m 0,64 h 8 v 8 h -8 z m 0,64 h 8 v 8 h -8 z m 16,-128 h 8 v 8 h -8 z m 0,64 h 8 v 8 h -8 z m 0,64 h 8 v 8 h -8 z"
         fill="#231f20"
         id="path837"
         style="fill:#f2f2f2" />
    </g>
  </g>
</svg>
