<?xml version="1.0" encoding="UTF-8" standalone="no"?>
<svg
   xmlns:dc="http://purl.org/dc/elements/1.1/"
   xmlns:cc="http://creativecommons.org/ns#"
   xmlns:rdf="http://www.w3.org/1999/02/22-rdf-syntax-ns#"
   xmlns:svg="http://www.w3.org/2000/svg"
   xmlns="http://www.w3.org/2000/svg"
   xmlns:sodipodi="http://sodipodi.sourceforge.net/DTD/sodipodi-0.dtd"
   xmlns:inkscape="http://www.inkscape.org/namespaces/inkscape"
   width="210mm"
   height="297mm"
   viewBox="0 0 210 297"
   version="1.1"
   id="svg8"
   sodipodi:docname="scree.svg"
   inkscape:version="1.0.1 (c497b03c, 2020-09-10)">
  <defs
     id="defs2" />
  <sodipodi:namedview
     id="base"
     pagecolor="#ffffff"
     bordercolor="#666666"
     borderopacity="1.0"
     inkscape:pageopacity="0.0"
     inkscape:pageshadow="2"
     inkscape:zoom="0.35"
     inkscape:cx="-150"
     inkscape:cy="560"
     inkscape:document-units="mm"
     inkscape:current-layer="layer1"
     inkscape:document-rotation="0"
     showgrid="false"
     inkscape:window-width="1252"
     inkscape:window-height="855"
     inkscape:window-x="0"
     inkscape:window-y="23"
     inkscape:window-maximized="0" />
  <metadata
     id="metadata5">
    <rdf:RDF>
      <cc:Work
         rdf:about="">
        <dc:format>image/svg+xml</dc:format>
        <dc:type
           rdf:resource="http://purl.org/dc/dcmitype/StillImage" />
        <dc:title></dc:title>
      </cc:Work>
    </rdf:RDF>
  </metadata>
  <g
     inkscape:label="Layer 1"
     inkscape:groupmode="layer"
     id="layer1">
    <g
       id="g2688"
       transform="matrix(0.26458333,0,0,0.26458333,40.367858,85.724997)"
       style="fill:#f2f2f2">
      <path
         d="M 256,512 32,384 V 128 L 256,0 480,128 V 384 Z M 39.88,379.43 256,502.9 472.12,379.43 V 132.57 L 256,9.1 39.88,132.57 Z"
         fill="#231f20"
         id="path2675"
         style="fill:#f2f2f2" />
      <path
         d="M 352,168 H 160 v 120 0 20 h 83.75 c -0.8,8.56 -4.3,28 -19.75,28 v 8 h 64 v -8 c -15.45,0 -19,-19.44 -19.75,-28 H 352 v -20 0 z m -184,8 H 344 V 280 H 168 Z m 102.27,160 h -28.52 c 6.71,-7.62 9.46,-19.2 10.09,-28 h 8.34 c 0.63,8.8 3.37,20.38 10.09,28 z M 344,300 H 168 v -12 h 176 z"
         fill="#231f20"
         id="path2677"
         style="fill:#f2f2f2" />
    </g>
  </g>
</svg>
